<svg width="250" height="250" xmlns="http://www.w3.org/2000/svg">
  <svg width="125" height="125" xmlns="http://www.w3.org/2000/svg" viewBox="0 0 127.14 96.36"><path fill="#5865f2" d="M107.7,8.07A105.15,105.15,0,0,0,81.47,0a72.06,72.06,0,0,0-3.36,6.83A97.68,97.68,0,0,0,49,6.83,72.37,72.37,0,0,0,45.64,0,105.89,105.89,0,0,0,19.39,8.09C2.79,32.65-1.71,56.6.54,80.21h0A105.73,105.73,0,0,0,32.71,96.36,77.7,77.7,0,0,0,39.6,85.25a68.42,68.42,0,0,1-10.85-5.18c.91-.66,1.8-1.34,2.66-2a75.57,75.57,0,0,0,64.32,0c.87.71,1.76,1.39,2.66,2a68.68,68.68,0,0,1-10.87,5.19,77,77,0,0,0,6.89,11.1A105.25,105.25,0,0,0,126.6,80.22h0C129.24,52.84,122.09,29.11,107.7,8.07ZM42.45,65.69C36.18,65.69,31,60,31,53s5-12.74,11.43-12.74S54,46,53.89,53,48.84,65.69,42.45,65.69Zm42.24,0C78.41,65.69,73.25,60,73.25,53s5-12.74,11.44-12.74S96.23,46,96.12,53,91.08,65.69,84.69,65.69Z"/></svg>
  <g transform="translate(125 125)"><svg width="125" height="125" xmlns="http://www.w3.org/2000/svg" viewBox="0 0 240 240"><defs><linearGradient id="a" x1="120" y1="240" x2="120" gradientUnits="userSpaceOnUse"><stop offset="0" stop-color="#1d93d2"/><stop offset="1" stop-color="#38b0e3"/></linearGradient></defs><circle cx="120" cy="120" r="120" fill="url(#a)"/><path d="m81.229 128.772 14.237 39.406s1.78 3.687 3.686 3.687 30.255-29.492 30.255-29.492l31.525-60.89L81.737 118.6Z" fill="#c8daea"/><path d="m100.106 138.878-2.733 29.046s-1.144 8.9 7.754 0 17.415-15.763 17.415-15.763" fill="#a9c6d8"/><path d="M81.486 130.178 52.2 120.636s-3.5-1.42-2.373-4.64c.232-.664.7-1.229 2.1-2.2 6.489-4.523 120.106-45.36 120.106-45.36s3.208-1.081 5.1-.362a2.77 2.77 0 0 1 1.885 2.055 9.4 9.4 0 0 1 .254 2.585c-.009.752-.1 1.449-.169 2.542-.692 11.165-21.4 94.493-21.4 94.493s-1.239 4.876-5.678 5.043a8.13 8.13 0 0 1-5.925-2.292c-8.711-7.493-38.819-27.727-45.472-32.177a1.27 1.27 0 0 1-.546-.9c-.093-.469.417-1.05.417-1.05s52.426-46.6 53.821-51.492c.108-.379-.3-.566-.848-.4-3.482 1.281-63.844 39.4-70.506 43.607a3.2 3.2 0 0 1-1.48.09" fill="#fff"/></svg></g>
  <path stroke="#FE0000" stroke-width="5" d="M50 200 200 50"/>
  <line x1="50" y1="200" x2="200" y2="50" stroke="#FE0000" stroke-width="5" />
</svg>
